<svg width="1600" height="900" viewBox="0 0 1600 900" fill="none" xmlns="http://www.w3.org/2000/svg">
  <rect width="1600" height="900" fill="#F4F1EA"/>
  <rect x="88" y="88" width="1424" height="724" stroke="#111111" stroke-width="16"/>
  <rect x="88" y="88" width="1424" height="116" fill="#111111"/>
  <rect x="88" y="646" width="1424" height="166" fill="#111111"/>
  <rect x="124" y="124" width="52" height="44" fill="#C3182D"/>
  <text x="202" y="164" fill="#F4F1EA" font-family="Arial, Helvetica, sans-serif" font-size="44" font-weight="900">BITCOIN</text>
  <text x="1228" y="164" fill="#F4F1EA" font-family="Arial, Helvetica, sans-serif" font-size="28" font-weight="900">DATA STORY</text>
  <text x="124" y="332" fill="#111111" font-family="Arial, Helvetica, sans-serif" font-size="92" font-weight="900">中本聪与比特币</text>
  <text x="124" y="438" fill="#111111" font-family="Arial, Helvetica, sans-serif" font-size="92" font-weight="900">共识的18年生长</text>
  <text x="124" y="534" fill="#C3182D" font-family="Arial, Helvetica, sans-serif" font-size="32" font-weight="900">WHITEPAPER / GENESIS / PRICE</text>
  <path d="M912 250H1410" stroke="#111111" stroke-width="8"/>
  <path d="M912 578H1410" stroke="#111111" stroke-width="8"/>
  <path d="M912 250V578" stroke="#111111" stroke-width="8"/>
  <path d="M1037 250V578M1161 250V578M1286 250V578M1410 250V578" stroke="#111111" stroke-width="4"/>
  <path d="M912 414H1410" stroke="#111111" stroke-width="4"/>
  <polyline points="948,532 1030,504 1112,472 1194,428 1276,378 1358,314" stroke="#C3182D" stroke-width="18" stroke-linecap="square" stroke-linejoin="miter"/>
  <circle cx="948" cy="532" r="14" fill="#111111"/>
  <circle cx="1112" cy="472" r="14" fill="#111111"/>
  <circle cx="1276" cy="378" r="14" fill="#111111"/>
  <circle cx="1358" cy="314" r="14" fill="#111111"/>
  <text x="124" y="718" fill="#F4F1EA" font-family="Arial, Helvetica, sans-serif" font-size="28" font-weight="900">SATOSHI / TIMELINE / 1.1M BTC</text>
  <text x="124" y="770" fill="#F4F1EA" font-family="Arial, Helvetica, sans-serif" font-size="54" font-weight="900">CONSENSUS GROWTH</text>
</svg>
