<svg width="1200" height="800" viewBox="0 0 1200 800" fill="none" xmlns="http://www.w3.org/2000/svg">
  <rect width="1200" height="800" fill="#080604"/>
  <path d="M0 0H1200V800H0V0Z" fill="url(#grid)"/>
  <path d="M254 486C366 240 818 165 924 337C1023 498 705 641 472 545C357 498 305 432 381 359C464 280 724 273 798 372C886 490 603 560 456 469" stroke="#F0A229" stroke-width="42" stroke-linecap="round"/>
  <path d="M254 486C366 240 818 165 924 337C1023 498 705 641 472 545C357 498 305 432 381 359C464 280 724 273 798 372C886 490 603 560 456 469" stroke="#140A06" stroke-width="10" stroke-linecap="round"/>
  <circle cx="754" cy="318" r="118" fill="url(#coin)" stroke="#FFD58E" stroke-width="8"/>
  <text x="754" y="365" text-anchor="middle" font-family="Georgia, serif" font-size="148" font-weight="700" fill="#2A1604">₿</text>
  <path d="M120 656L240 600L352 620L462 505L580 525L705 410L830 450L1080 244" stroke="#FFF6EA" stroke-width="8" stroke-linecap="round" stroke-linejoin="round"/>
  <path d="M92 130H586" stroke="#FFF6EA" stroke-width="12"/>
  <path d="M92 172H468" stroke="#F0A229" stroke-width="10"/>
  <path d="M92 214H532" stroke="#FFF6EA" stroke-opacity=".72" stroke-width="8"/>
  <defs>
    <pattern id="grid" width="58" height="58" patternUnits="userSpaceOnUse">
      <path d="M58 0H0V58" stroke="#FFD58E" stroke-opacity=".08"/>
    </pattern>
    <radialGradient id="coin" cx="0" cy="0" r="1" gradientUnits="userSpaceOnUse" gradientTransform="translate(710 276) rotate(52) scale(205)">
      <stop stop-color="#FFF1B5"/>
      <stop offset=".45" stop-color="#F0A229"/>
      <stop offset="1" stop-color="#8D4D12"/>
    </radialGradient>
  </defs>
</svg>
