<svg width="1600" height="900" viewBox="0 0 1600 900" fill="none" xmlns="http://www.w3.org/2000/svg">
  <rect width="1600" height="900" fill="#F4F1EA"/>
  <path d="M0 0H1600V900H0V0Z" fill="url(#grid)"/>
  <rect x="140" y="114" width="1320" height="672" fill="#101010"/>
  <rect x="140" y="114" width="1320" height="80" fill="#E8E3D8"/>
  <circle cx="188" cy="154" r="12" fill="#FF5F57"/>
  <circle cx="228" cy="154" r="12" fill="#FFBD2E"/>
  <circle cx="268" cy="154" r="12" fill="#28C840"/>
  <text x="334" y="164" fill="#111111" font-family="Arial, Helvetica, sans-serif" font-size="28" font-weight="700">lilac agent runtime</text>
  <text x="196" y="295" fill="#F4F1EA" font-family="Arial, Helvetica, sans-serif" font-size="112" font-weight="800">Lilac-CLI</text>
  <text x="204" y="365" fill="#A991FF" font-family="Arial, Helvetica, sans-serif" font-size="34" font-weight="700">Bun + Ink terminal agent framework</text>
  <text x="204" y="462" fill="#F4F1EA" font-family="Arial, Helvetica, sans-serif" font-size="28">skills/default.md</text>
  <text x="204" y="512" fill="#CFC8BA" font-family="Arial, Helvetica, sans-serif" font-size="28">model: openai-style provider</text>
  <text x="204" y="562" fill="#CFC8BA" font-family="Arial, Helvetica, sans-serif" font-size="28">stream: reactive tui messages</text>
  <text x="204" y="612" fill="#CFC8BA" font-family="Arial, Helvetica, sans-serif" font-size="28">cost: live token monitor</text>
  <rect x="914" y="292" width="360" height="360" fill="#F4F1EA"/>
  <rect x="958" y="336" width="272" height="52" fill="#101010"/>
  <rect x="958" y="420" width="206" height="28" fill="#7F5CFF"/>
  <rect x="958" y="474" width="248" height="28" fill="#D6FB41"/>
  <rect x="958" y="528" width="178" height="28" fill="#FF5F57"/>
  <path d="M1326 286L1456 416L1326 546L1196 416L1326 286Z" fill="#7F5CFF"/>
  <path d="M1326 354L1388 416L1326 478L1264 416L1326 354Z" fill="#101010"/>
  <defs>
    <pattern id="grid" width="80" height="80" patternUnits="userSpaceOnUse">
      <path d="M80 0H0V80" stroke="#D8D2C5" stroke-width="1"/>
    </pattern>
  </defs>
</svg>
