<svg width="1600" height="900" viewBox="0 0 1600 900" fill="none" xmlns="http://www.w3.org/2000/svg">
  <rect width="1600" height="900" fill="#F4F1EA"/>
  <rect x="88" y="88" width="1424" height="724" stroke="#111111" stroke-width="16"/>
  <rect x="88" y="88" width="1424" height="150" fill="#111111"/>
  <rect x="124" y="124" width="68" height="68" fill="#C3182D"/>
  <text x="224" y="181" fill="#F4F1EA" font-family="Arial, Helvetica, sans-serif" font-size="62" font-weight="900">QUIDEM</text>
  <text x="1108" y="176" fill="#F4F1EA" font-family="Arial, Helvetica, sans-serif" font-size="34" font-weight="900">2026 / PYTHON</text>
  <text x="124" y="356" fill="#111111" font-family="Arial, Helvetica, sans-serif" font-size="94" font-weight="900">量化交易</text>
  <text x="124" y="470" fill="#111111" font-family="Arial, Helvetica, sans-serif" font-size="94" font-weight="900">框架</text>
  <text x="124" y="556" fill="#C3182D" font-family="Arial, Helvetica, sans-serif" font-size="34" font-weight="900">BINANCE FUTURES</text>
  <text x="124" y="608" fill="#111111" font-family="Arial, Helvetica, sans-serif" font-size="28" font-weight="800">EXECUTION / TUI / REDIS / RISK / BACKTEST</text>
  <path d="M760 326H1400" stroke="#111111" stroke-width="8"/>
  <path d="M760 690H1400" stroke="#111111" stroke-width="8"/>
  <path d="M760 326V690" stroke="#111111" stroke-width="8"/>
  <path d="M920 326V690M1080 326V690M1240 326V690M1400 326V690" stroke="#111111" stroke-width="4"/>
  <path d="M760 508H1400" stroke="#111111" stroke-width="4"/>
  <polyline points="792,624 880,566 968,596 1056,472 1144,502 1232,386 1320,430 1384,374" stroke="#C3182D" stroke-width="18" stroke-linecap="square" stroke-linejoin="miter"/>
  <circle cx="792" cy="624" r="14" fill="#111111"/>
  <circle cx="1056" cy="472" r="14" fill="#111111"/>
  <circle cx="1232" cy="386" r="14" fill="#111111"/>
  <circle cx="1384" cy="374" r="14" fill="#111111"/>
  <text x="760" y="758" fill="#111111" font-family="Arial, Helvetica, sans-serif" font-size="30" font-weight="900">PERSONAL QUANT WORKBENCH</text>
</svg>
