<svg width="1600" height="900" viewBox="0 0 1600 900" fill="none" xmlns="http://www.w3.org/2000/svg">
  <rect width="1600" height="900" fill="#F4F1EA"/>
  <path d="M96 96H1504V804H96V96Z" stroke="#111111" stroke-width="18"/>
  <path d="M96 248H1504" stroke="#111111" stroke-width="12"/>
  <path d="M470 96V804" stroke="#111111" stroke-width="12"/>
  <path d="M900 248V804" stroke="#111111" stroke-width="8"/>
  <rect x="134" y="132" width="92" height="92" fill="#C3182D"/>
  <text x="250" y="198" fill="#111111" font-family="Arial, Helvetica, sans-serif" font-size="58" font-weight="900">QUIDEM</text>
  <text x="134" y="342" fill="#111111" font-family="Arial, Helvetica, sans-serif" font-size="86" font-weight="900">量化交易</text>
  <text x="134" y="438" fill="#111111" font-family="Arial, Helvetica, sans-serif" font-size="86" font-weight="900">框架</text>
  <text x="134" y="546" fill="#C3182D" font-family="Arial, Helvetica, sans-serif" font-size="34" font-weight="900">BINANCE FUTURES / REDIS / BACKTEST</text>
  <text x="520" y="342" fill="#111111" font-family="Arial, Helvetica, sans-serif" font-size="38" font-weight="800">01 EXECUTION CORE</text>
  <text x="520" y="426" fill="#111111" font-family="Arial, Helvetica, sans-serif" font-size="38" font-weight="800">02 TUI MONITOR</text>
  <text x="520" y="510" fill="#111111" font-family="Arial, Helvetica, sans-serif" font-size="38" font-weight="800">03 RISK CONTROL</text>
  <text x="520" y="594" fill="#111111" font-family="Arial, Helvetica, sans-serif" font-size="38" font-weight="800">04 REPORT PIPELINE</text>
  <polyline points="956,660 1036,560 1116,590 1196,406 1276,462 1356,324 1436,374" stroke="#C3182D" stroke-width="18" stroke-linecap="square" stroke-linejoin="miter"/>
  <path d="M956 700H1436" stroke="#111111" stroke-width="8"/>
  <path d="M956 320V700" stroke="#111111" stroke-width="8"/>
  <text x="956" y="216" fill="#111111" font-family="Arial, Helvetica, sans-serif" font-size="42" font-weight="900">PERSONAL QUANT WORKBENCH</text>
</svg>
