<svg width="1600" height="900" viewBox="0 0 1600 900" fill="none" xmlns="http://www.w3.org/2000/svg">
  <rect width="1600" height="900" fill="#F6F6F2"/>
  <rect x="90" y="90" width="1420" height="720" stroke="#111111" stroke-width="16"/>
  <path d="M90 258H1510" stroke="#111111" stroke-width="12"/>
  <text x="126" y="190" fill="#111111" font-family="Arial, Helvetica, sans-serif" font-size="68" font-weight="900">COLONNADE</text>
  <text x="930" y="178" fill="#D21F2F" font-family="Arial, Helvetica, sans-serif" font-size="34" font-weight="900">WAGMI / VIEM / D3</text>
  <text x="126" y="392" fill="#111111" font-family="Arial, Helvetica, sans-serif" font-size="86" font-weight="900">链上数据</text>
  <text x="126" y="500" fill="#111111" font-family="Arial, Helvetica, sans-serif" font-size="86" font-weight="900">可视化</text>
  <text x="126" y="592" fill="#D21F2F" font-family="Arial, Helvetica, sans-serif" font-size="34" font-weight="900">ETHEREUM DAPP</text>
  <rect x="720" y="356" width="76" height="244" fill="#111111"/>
  <rect x="830" y="426" width="76" height="174" fill="#111111"/>
  <rect x="940" y="318" width="76" height="282" fill="#111111"/>
  <rect x="1050" y="472" width="76" height="128" fill="#111111"/>
  <rect x="1160" y="390" width="76" height="210" fill="#111111"/>
  <rect x="1270" y="338" width="76" height="262" fill="#111111"/>
  <rect x="1380" y="444" width="76" height="156" fill="#111111"/>
  <polyline points="720,486 830,456 940,392 1050,438 1160,402 1270,350 1380,376 1456,342" stroke="#D21F2F" stroke-width="14" stroke-linecap="square" stroke-linejoin="miter"/>
  <path d="M690 640H1470" stroke="#111111" stroke-width="8"/>
  <text x="690" y="720" fill="#111111" font-family="Arial, Helvetica, sans-serif" font-size="28" font-weight="900">LATEST BLOCK / GAS PRICE / WALLET BALANCE</text>
</svg>
