<svg width="1600" height="900" viewBox="0 0 1600 900" fill="none" xmlns="http://www.w3.org/2000/svg">
  <rect width="1600" height="900" fill="#EEF2F0"/>
  <rect x="116" y="106" width="1368" height="688" fill="#0E1110"/>
  <path d="M206 222H608" stroke="#EEF2F0" stroke-width="6"/>
  <path d="M206 684H1394" stroke="#EEF2F0" stroke-width="6"/>
  <text x="206" y="354" fill="#EEF2F0" font-family="Arial, Helvetica, sans-serif" font-size="98" font-weight="800">Solana</text>
  <text x="206" y="458" fill="#EEF2F0" font-family="Arial, Helvetica, sans-serif" font-size="78" font-weight="800">Private Fork</text>
  <text x="210" y="528" fill="#66E0C2" font-family="Arial, Helvetica, sans-serif" font-size="34" font-weight="700">fixed 0.5% inflation</text>
  <text x="210" y="572" fill="#66E0C2" font-family="Arial, Helvetica, sans-serif" font-size="34" font-weight="700">tokenomics refinement</text>
  <g font-family="Arial, Helvetica, sans-serif" font-size="25" font-weight="800" letter-spacing="0">
    <text x="846" y="282" fill="#EEF2F0">10M SOL</text>
    <text x="846" y="382" fill="#EEF2F0">100K STAKE</text>
    <text x="846" y="482" fill="#EEF2F0">64 SLOT EPOCH</text>
    <text x="846" y="582" fill="#EEF2F0">LOCAL RPC</text>
  </g>
  <rect x="780" y="244" width="38" height="38" fill="#66E0C2"/>
  <rect x="780" y="344" width="38" height="38" fill="#D6FB41"/>
  <rect x="780" y="444" width="38" height="38" fill="#FF5F57"/>
  <rect x="780" y="544" width="38" height="38" fill="#EEF2F0"/>
  <path d="M1272 226L1452 416L1272 606L1092 416L1272 226Z" stroke="#66E0C2" stroke-width="22"/>
  <path d="M1272 320L1364 416L1272 512L1180 416L1272 320Z" fill="#D6FB41"/>
</svg>
